<svg width="19" height="19" viewBox="0 0 19 19" fill="none" xmlns="http://www.w3.org/2000/svg">
<path d="M18.75 9.25C18.75 14.2422 14.707 18.25 9.75 18.25C4.75781 18.25 0.75 14.2422 0.75 9.25C0.75 4.29297 4.75781 0.25 9.75 0.25C14.707 0.25 18.75 4.29297 18.75 9.25ZM10.5938 10.5508V3.34375C10.5938 2.88672 10.207 2.5 9.75 2.5C9.25781 2.5 8.90625 2.88672 8.90625 3.34375V10.5508C8.0625 10.9023 7.5 11.7109 7.5 12.625C7.5 13.8906 8.48438 14.875 9.75 14.875C10.9805 14.875 12 13.8906 12 12.625C12 11.7109 11.4023 10.9023 10.5938 10.5508ZM5.8125 6.4375C6.41016 6.4375 6.9375 5.94531 6.9375 5.3125C6.9375 4.71484 6.41016 4.1875 5.8125 4.1875C5.17969 4.1875 4.6875 4.71484 4.6875 5.3125C4.6875 5.94531 5.17969 6.4375 5.8125 6.4375ZM4.125 8.125C3.49219 8.125 3 8.65234 3 9.25C3 9.88281 3.49219 10.375 4.125 10.375C4.72266 10.375 5.25 9.88281 5.25 9.25C5.25 8.65234 4.72266 8.125 4.125 8.125ZM15.375 10.375C15.9727 10.375 16.5 9.88281 16.5 9.25C16.5 8.65234 15.9727 8.125 15.375 8.125C14.7422 8.125 14.25 8.65234 14.25 9.25C14.25 9.88281 14.7422 10.375 15.375 10.375ZM13.6875 4.1875C13.0547 4.1875 12.5625 4.71484 12.5625 5.3125C12.5625 5.94531 13.0547 6.4375 13.6875 6.4375C14.2852 6.4375 14.8125 5.94531 14.8125 5.3125C14.8125 4.71484 14.2852 4.1875 13.6875 4.1875Z" fill="#333333"/>
</svg>
