<svg width="11" height="13" viewBox="0 0 11 13" fill="none" xmlns="http://www.w3.org/2000/svg">
<path d="M3.5625 2H6.9375V1.0625C6.9375 0.757812 7.17188 0.5 7.5 0.5C7.80469 0.5 8.0625 0.757812 8.0625 1.0625V2H9C9.82031 2 10.5 2.67969 10.5 3.5V11C10.5 11.8438 9.82031 12.5 9 12.5H1.5C0.65625 12.5 0 11.8438 0 11V3.5C0 2.67969 0.65625 2 1.5 2H2.4375V1.0625C2.4375 0.757812 2.67188 0.5 3 0.5C3.30469 0.5 3.5625 0.757812 3.5625 1.0625V2ZM1.125 11C1.125 11.2109 1.28906 11.375 1.5 11.375H9C9.1875 11.375 9.375 11.2109 9.375 11V5H1.125V11Z" fill="#9A9A9A"/>
</svg>
