<svg width="16" height="19" viewBox="0 0 16 19" fill="none" xmlns="http://www.w3.org/2000/svg">
<path d="M5.46875 2.5H10.5312V1.09375C10.5312 0.636719 10.8828 0.25 11.375 0.25C11.832 0.25 12.2188 0.636719 12.2188 1.09375V2.5H13.625C14.8555 2.5 15.875 3.51953 15.875 4.75V16C15.875 17.2656 14.8555 18.25 13.625 18.25H2.375C1.10938 18.25 0.125 17.2656 0.125 16V4.75C0.125 3.51953 1.10938 2.5 2.375 2.5H3.78125V1.09375C3.78125 0.636719 4.13281 0.25 4.625 0.25C5.08203 0.25 5.46875 0.636719 5.46875 1.09375V2.5ZM1.8125 16C1.8125 16.3164 2.05859 16.5625 2.375 16.5625H13.625C13.9062 16.5625 14.1875 16.3164 14.1875 16V7H1.8125V16Z" fill="#9A9A9A"/>
</svg>
