<svg xmlns="http://www.w3.org/2000/svg" width="21.517" height="18.648" viewBox="0 0 21.517 18.648">
  <g id="noun-camera-4711420" transform="translate(-87.504 -52.5)">
    <path id="Path_72289" data-name="Path 72289" d="M103.01,55.369l-.84-1.68a2.152,2.152,0,0,0-1.924-1.189H96.28a2.152,2.152,0,0,0-1.924,1.189l-.84,1.68H91.09A3.585,3.585,0,0,0,87.5,58.955v8.607a3.585,3.585,0,0,0,3.586,3.586h14.345a3.585,3.585,0,0,0,3.586-3.586V58.955a3.585,3.585,0,0,0-3.586-3.586Zm-1.085,1.038a.716.716,0,0,0,.641.4h2.869a2.153,2.153,0,0,1,2.152,2.152v8.607a2.153,2.153,0,0,1-2.152,2.152H91.09a2.153,2.153,0,0,1-2.152-2.152V58.955A2.153,2.153,0,0,1,91.09,56.8h2.869a.716.716,0,0,0,.641-.4l1.039-2.076a.716.716,0,0,1,.641-.4h3.965a.716.716,0,0,1,.641.4l1.039,2.076Z" transform="translate(0 0)" fill="#007aff" fill-rule="evenodd"/>
    <path id="Path_72290" data-name="Path 72290" d="M232.521,192.5a5.021,5.021,0,1,0,5.021,5.021A5.024,5.024,0,0,0,232.521,192.5Zm0,1.434a3.586,3.586,0,1,1-3.586,3.586A3.588,3.588,0,0,1,232.521,193.934Z" transform="translate(-134.258 -134.262)" fill="#007aff" fill-rule="evenodd"/>
    <path id="Path_72291" data-name="Path 72291" d="M158.217,193.934h1.435a.717.717,0,0,0,0-1.434h-1.435a.717.717,0,1,0,0,1.434Z" transform="translate(-67.127 -134.262)" fill="#007aff" fill-rule="evenodd"/>
  </g>
</svg>
