<svg width="16" height="14" viewBox="0 0 16 14" fill="none" xmlns="http://www.w3.org/2000/svg">
<path d="M3.14453 8.3125C3.14453 7.81445 3.55469 7.375 4.08203 7.375C4.58008 7.375 5.01953 7.81445 5.01953 8.3125C5.01953 8.83984 4.58008 9.25 4.08203 9.25C3.55469 9.25 3.14453 8.83984 3.14453 8.3125ZM13.457 8.3125C13.457 8.83984 13.0176 9.25 12.5195 9.25C11.9922 9.25 11.582 8.83984 11.582 8.3125C11.582 7.81445 11.9922 7.375 12.5195 7.375C13.0176 7.375 13.457 7.81445 13.457 8.3125ZM2.20703 5.41211L3.20312 2.54102C3.55469 1.51562 4.55078 0.8125 5.63477 0.8125H10.9375C12.0215 0.8125 13.0176 1.51562 13.3691 2.54102L14.3652 5.41211C15.2148 5.91016 15.8008 6.81836 15.8008 7.84375V13.2344C15.8008 13.6445 15.4785 13.9375 15.0977 13.9375C14.6875 13.9375 14.3945 13.6445 14.3945 13.2344V11.5938H2.20703V13.2344C2.20703 13.6445 1.88477 13.9375 1.50391 13.9375C1.09375 13.9375 0.800781 13.6445 0.800781 13.2344V7.84375C0.800781 6.81836 1.35742 5.91016 2.20703 5.41211ZM3.81836 5.03125H12.7539L12.0508 3.00977C11.875 2.54102 11.4355 2.21875 10.9375 2.21875H5.63477C5.13672 2.21875 4.69727 2.54102 4.52148 3.00977L3.81836 5.03125ZM12.9883 6.4375H3.61328C2.82227 6.4375 2.20703 7.08203 2.20703 7.84375V10.1875H14.3945V7.84375C14.3945 7.08203 13.75 6.4375 12.9883 6.4375Z" fill="#83899B"/>
</svg>
