<svg width="20" height="16" viewBox="0 0 20 16" fill="none" xmlns="http://www.w3.org/2000/svg">
<path d="M4.5 5C5.375 5 6.1875 4.53125 6.65625 3.75C7.09375 3 7.09375 2.03125 6.65625 1.25C6.1875 0.5 5.375 0 4.5 0C3.59375 0 2.78125 0.5 2.3125 1.25C1.875 2.03125 1.875 3 2.3125 3.75C2.78125 4.53125 3.59375 5 4.5 5ZM16 5C16.875 5 17.6875 4.53125 18.1562 3.75C18.5938 3 18.5938 2.03125 18.1562 1.25C17.6875 0.5 16.875 0 16 0C15.0938 0 14.2812 0.5 13.8125 1.25C13.375 2.03125 13.375 3 13.8125 3.75C14.2812 4.53125 15.0938 5 16 5ZM0 9.34375C0 9.71875 0.28125 10 0.65625 10H7.3125H7.34375C6.5 9.28125 6 8.21875 6 7C6 6.78125 6 6.53125 6.0625 6.3125C5.625 6.125 5.15625 6 4.65625 6H3.3125C1.46875 6 0 7.5 0 9.34375ZM12.6562 10H19.3125C19.6875 10 20 9.71875 20 9.34375C20 7.5 18.5 6 16.6562 6H15.3125C14.8125 6 14.3438 6.125 13.9375 6.3125C13.9688 6.53125 14 6.78125 14 7C14 8.21875 13.4688 9.28125 12.625 10H12.6562ZM10 5.5C10.5312 5.5 11 5.8125 11.2812 6.25C11.5625 6.71875 11.5625 7.3125 11.2812 7.75C11 8.21875 10.5312 8.5 10 8.5C9.4375 8.5 8.96875 8.21875 8.6875 7.75C8.40625 7.3125 8.40625 6.71875 8.6875 6.25C8.96875 5.8125 9.4375 5.5 10 5.5ZM10 10C11.0625 10 12.0312 9.4375 12.5938 8.5C13.125 7.59375 13.125 6.4375 12.5938 5.5C12.0312 4.59375 11.0625 4 10 4C8.90625 4 7.9375 4.59375 7.375 5.5C6.84375 6.4375 6.84375 7.59375 7.375 8.5C7.9375 9.4375 8.90625 10 10 10ZM8.15625 12.5H11.8125C13.0625 12.5 14.0938 13.375 14.4062 14.5H5.5625C5.875 13.375 6.90625 12.5 8.15625 12.5ZM8.15625 11C5.84375 11 4 12.875 4 15.1875C4 15.625 4.34375 16 4.8125 16H15.1562C15.625 16 16 15.6562 16 15.1875C16 12.875 14.125 11 11.8125 11H8.15625Z" fill="#1355FF"/>
</svg>
