<svg width="19" height="19" viewBox="0 0 19 19" fill="none" xmlns="http://www.w3.org/2000/svg">
<path d="M11.7188 12.625C11.7188 13.7148 10.8047 14.5938 9.75 14.5938C8.66016 14.5938 7.78125 13.7148 7.78125 12.625C7.78125 11.8516 8.23828 11.1836 8.87109 10.8672V4.46875C8.87109 4.01172 9.25781 3.625 9.71484 3.625C10.207 3.625 10.5938 4.01172 10.5938 4.46875V10.8672C11.2266 11.1836 11.7188 11.8516 11.7188 12.625ZM5.25 5.875C5.25 5.27734 5.74219 4.75 6.375 4.75C6.97266 4.75 7.5 5.27734 7.5 5.875C7.5 6.50781 6.97266 7 6.375 7C5.74219 7 5.25 6.50781 5.25 5.875ZM5.8125 9.25C5.8125 9.88281 5.28516 10.375 4.6875 10.375C4.05469 10.375 3.5625 9.88281 3.5625 9.25C3.5625 8.65234 4.05469 8.125 4.6875 8.125C5.28516 8.125 5.8125 8.65234 5.8125 9.25ZM13.6875 9.25C13.6875 8.65234 14.1797 8.125 14.8125 8.125C15.4102 8.125 15.9375 8.65234 15.9375 9.25C15.9375 9.88281 15.4102 10.375 14.8125 10.375C14.1797 10.375 13.6875 9.88281 13.6875 9.25ZM14.25 5.875C14.25 6.50781 13.7227 7 13.125 7C12.4922 7 12 6.50781 12 5.875C12 5.27734 12.4922 4.75 13.125 4.75C13.7227 4.75 14.25 5.27734 14.25 5.875ZM0.75 9.25C0.75 4.29297 4.75781 0.25 9.75 0.25C14.707 0.25 18.75 4.29297 18.75 9.25C18.75 14.2422 14.707 18.25 9.75 18.25C4.75781 18.25 0.75 14.2422 0.75 9.25ZM9.75 16.5625C13.7578 16.5625 17.0625 13.293 17.0625 9.25C17.0625 5.24219 13.7578 1.9375 9.75 1.9375C5.70703 1.9375 2.4375 5.24219 2.4375 9.25C2.4375 13.293 5.70703 16.5625 9.75 16.5625Z" fill="#9A9A9A"/>
</svg>
