<svg width="20" height="19" viewBox="0 0 20 19" fill="none" xmlns="http://www.w3.org/2000/svg">
<path d="M10 1.9375C12.6016 1.9375 14.9922 3.34375 16.3281 5.59375C17.6289 7.87891 17.6289 10.6562 16.3281 12.9062C14.9922 15.1914 12.6016 16.5625 10 16.5625C7.36328 16.5625 4.97266 15.1914 3.63672 12.9062C2.33594 10.6562 2.33594 7.87891 3.63672 5.59375C4.97266 3.34375 7.36328 1.9375 10 1.9375ZM10 18.25C13.1992 18.25 16.1523 16.5625 17.7695 13.75C19.3867 10.9727 19.3867 7.5625 17.7695 4.75C16.1523 1.97266 13.1992 0.25 10 0.25C6.76562 0.25 3.8125 1.97266 2.19531 4.75C0.578125 7.5625 0.578125 10.9727 2.19531 13.75C3.8125 16.5625 6.76562 18.25 10 18.25ZM11.9688 12.625C11.9688 11.8516 11.4766 11.1836 10.8438 10.8672V4.46875C10.8438 4.01172 10.457 3.625 10 3.625C9.50781 3.625 9.15625 4.01172 9.15625 4.46875V10.8672C8.48828 11.1836 8.03125 11.8516 8.03125 12.625C8.03125 13.7148 8.91016 14.5938 10 14.5938C11.0547 14.5938 11.9688 13.7148 11.9688 12.625ZM6.625 7C7.22266 7 7.75 6.50781 7.75 5.875C7.75 5.27734 7.22266 4.75 6.625 4.75C5.99219 4.75 5.5 5.27734 5.5 5.875C5.5 6.50781 5.99219 7 6.625 7ZM6.0625 9.25C6.0625 8.65234 5.53516 8.125 4.9375 8.125C4.30469 8.125 3.8125 8.65234 3.8125 9.25C3.8125 9.88281 4.30469 10.375 4.9375 10.375C5.53516 10.375 6.0625 9.88281 6.0625 9.25ZM15.0625 10.375C15.6602 10.375 16.1875 9.88281 16.1875 9.25C16.1875 8.65234 15.6602 8.125 15.0625 8.125C14.4297 8.125 13.9375 8.65234 13.9375 9.25C13.9375 9.88281 14.4297 10.375 15.0625 10.375ZM14.5 5.875C14.5 5.27734 13.9727 4.75 13.375 4.75C12.7422 4.75 12.25 5.27734 12.25 5.875C12.25 6.50781 12.7422 7 13.375 7C13.9727 7 14.5 6.50781 14.5 5.875Z" fill="#1355FF"/>
</svg>
