<svg width="15" height="16" viewBox="0 0 15 16" fill="none" xmlns="http://www.w3.org/2000/svg">
<path d="M4.71875 0.5625C4.875 0.21875 5.21875 0 5.59375 0H9.375C9.75 0 10.0938 0.21875 10.25 0.5625L10.5 1H13.5C14.0312 1 14.5 1.46875 14.5 2C14.5 2.5625 14.0312 3 13.5 3H1.5C0.9375 3 0.5 2.5625 0.5 2C0.5 1.46875 0.9375 1 1.5 1H4.5L4.71875 0.5625ZM12.8125 14.5938C12.7812 15.4062 12.125 16 11.3125 16H3.65625C2.84375 16 2.1875 15.4062 2.15625 14.5938L1.46875 4H13.5L12.8125 14.5938Z" fill="#FF5C5C"/>
</svg>
