<svg width="14" height="14" viewBox="0 0 14 14" fill="none" xmlns="http://www.w3.org/2000/svg">
<path d="M12.9062 7.125C12.75 6.75 12.375 6.5 12 6.5H9.5V1.5C9.5 0.6875 8.8125 0 8 0H6C5.15625 0 4.5 0.6875 4.5 1.5V6.5H2C1.59375 6.5 1.21875 6.75 1.0625 7.125C0.90625 7.5 1 7.9375 1.28125 8.21875L6.28125 13.7188C6.46875 13.9062 6.71875 14 7 14C7.25 14 7.5 13.9062 7.6875 13.7188L12.6875 8.21875C12.9688 7.9375 13.0625 7.5 12.9062 7.125ZM7 12.3125L3.1875 8H6V1.5H8V8H10.7812L7 12.3125Z" fill="#9A9A9A"/>
</svg>
