<svg width="19" height="16" viewBox="0 0 19 16" fill="none" xmlns="http://www.w3.org/2000/svg">
<path d="M12.1875 2.75V8.375C12.1875 9.42969 11.3379 10.25 10.3125 10.25H6.5625L3.36914 12.0664C3.28125 12.125 3.22266 12.125 3.16406 12.125C2.95898 12.125 2.8125 12.0078 2.8125 11.7734V10.25H1.875C0.820312 10.25 0 9.42969 0 8.375V2.75C0 1.72461 0.820312 0.875 1.875 0.875H10.3125C11.3379 0.875 12.1875 1.72461 12.1875 2.75ZM4.21875 9.98633L6.18164 8.84375H10.3125C10.5469 8.84375 10.7812 8.63867 10.7812 8.375V2.75C10.7812 2.51562 10.5469 2.28125 10.3125 2.28125H1.875C1.61133 2.28125 1.40625 2.51562 1.40625 2.75V8.375C1.40625 8.63867 1.61133 8.84375 1.875 8.84375H4.21875V9.98633ZM7.5 12.125V11.1875H8.90625V12.125C8.90625 12.3887 9.11133 12.5938 9.375 12.5938H12.5391L14.5312 13.7363V12.5938H16.875C17.1094 12.5938 17.3438 12.3887 17.3438 12.125V6.5C17.3438 6.26562 17.1094 6.03125 16.875 6.03125H13.125V4.625H16.875C17.9004 4.625 18.75 5.47461 18.75 6.5V12.125C18.75 13.1797 17.9004 14 16.875 14H15.9375V15.5234C15.9375 15.7578 15.7617 15.875 15.5859 15.875C15.498 15.875 15.4395 15.875 15.3516 15.8164L12.1875 14H9.375C8.32031 14 7.5 13.1797 7.5 12.125Z" fill="#83899B"/>
</svg>
