<svg width="9" height="16" viewBox="0 0 9 16" fill="none" xmlns="http://www.w3.org/2000/svg">
<path d="M5.22461 3.04297C6.01562 3.13086 6.74805 3.27734 7.30469 3.39453C7.68555 3.51172 7.91992 3.86328 7.83203 4.24414C7.74414 4.625 7.36328 4.85938 6.98242 4.77148C6.07422 4.56641 4.75586 4.30273 3.64258 4.41992C3.08594 4.44922 2.64648 4.56641 2.32422 4.77148C2.03125 4.97656 1.79688 5.24023 1.73828 5.67969C1.65039 6.00195 1.70898 6.23633 1.79688 6.38281C1.85547 6.55859 2.03125 6.73438 2.29492 6.88086C2.85156 7.23242 3.67188 7.4668 4.66797 7.70117L4.75586 7.73047C5.66406 7.96484 6.68945 8.22852 7.48047 8.69727C7.89062 8.96094 8.24219 9.2832 8.47656 9.75195C8.74023 10.2207 8.76953 10.7773 8.68164 11.3633C8.47656 12.418 7.71484 13.0918 6.77734 13.4434C6.30859 13.6191 5.78125 13.7363 5.22461 13.7656V15.1719C5.22461 15.582 4.90234 15.875 4.52148 15.875C4.11133 15.875 3.81836 15.582 3.81836 15.1719V13.7363C3.70117 13.707 3.61328 13.707 3.52539 13.707L3.49609 13.6777C2.79297 13.5898 1.50391 13.2969 0.712891 12.9453C0.361328 12.7695 0.185547 12.3594 0.361328 12.0078C0.507812 11.6562 0.917969 11.4805 1.26953 11.6562C1.88477 11.9199 3.05664 12.2129 3.70117 12.3008C4.75586 12.4473 5.63477 12.3594 6.2793 12.125C6.89453 11.8906 7.2168 11.5391 7.27539 11.0996C7.36328 10.748 7.30469 10.543 7.2168 10.3965C7.1582 10.2207 6.98242 10.0449 6.71875 9.89844C6.16211 9.54688 5.3418 9.3125 4.3457 9.07812L4.25781 9.04883C3.34961 8.81445 2.32422 8.55078 1.5332 8.08203C1.12305 7.81836 0.771484 7.49609 0.537109 7.02734C0.273438 6.5293 0.244141 6.00195 0.332031 5.41602C0.507812 4.56641 0.947266 3.98047 1.5625 3.59961C2.14844 3.21875 2.85156 3.07227 3.52539 3.01367C3.61328 3.01367 3.70117 2.98438 3.81836 2.98438V1.57812C3.81836 1.19727 4.11133 0.875 4.52148 0.875C4.90234 0.875 5.22461 1.19727 5.22461 1.57812V3.04297Z" fill="#83899B"/>
</svg>
