<svg width="12" height="16" viewBox="0 0 12 16" fill="none" xmlns="http://www.w3.org/2000/svg">
<path d="M2 1.5C1.71875 1.5 1.5 1.75 1.5 2V14C1.5 14.2812 1.71875 14.5 2 14.5H4.5V12.5C4.5 11.6875 5.15625 11 6 11C6.8125 11 7.5 11.6875 7.5 12.5V14.5H10C10.25 14.5 10.5 14.2812 10.5 14V2C10.5 1.75 10.25 1.5 10 1.5H2ZM0 2C0 0.90625 0.875 0 2 0H10C11.0938 0 12 0.90625 12 2V14C12 15.125 11.0938 16 10 16H2C0.875 16 0 15.125 0 14V2ZM2.75 3.25C2.75 3 2.96875 2.75 3.25 2.75H4.75C5 2.75 5.25 3 5.25 3.25V4.75C5.25 5.03125 5 5.25 4.75 5.25H3.25C2.96875 5.25 2.75 5.03125 2.75 4.75V3.25ZM7.25 2.75H8.75C9 2.75 9.25 3 9.25 3.25V4.75C9.25 5.03125 9 5.25 8.75 5.25H7.25C6.96875 5.25 6.75 5.03125 6.75 4.75V3.25C6.75 3 6.96875 2.75 7.25 2.75ZM2.75 7.25C2.75 7 2.96875 6.75 3.25 6.75H4.75C5 6.75 5.25 7 5.25 7.25V8.75C5.25 9.03125 5 9.25 4.75 9.25H3.25C2.96875 9.25 2.75 9.03125 2.75 8.75V7.25ZM7.25 6.75H8.75C9 6.75 9.25 7 9.25 7.25V8.75C9.25 9.03125 9 9.25 8.75 9.25H7.25C6.96875 9.25 6.75 9.03125 6.75 8.75V7.25C6.75 7 6.96875 6.75 7.25 6.75Z" fill="#1355FF"/>
</svg>
