<svg width="18" height="13" viewBox="0 0 18 13" fill="none" xmlns="http://www.w3.org/2000/svg">
<path d="M17.5 8.5V9.8125C17.5 10.3047 17.0898 10.6875 16.625 10.6875H15.6953C15.5039 11.9453 14.4102 12.875 13.125 12.875C11.8125 12.875 10.7188 11.9453 10.5273 10.6875H6.94531C6.75391 11.9453 5.66016 12.875 4.375 12.875C3.0625 12.875 1.96875 11.9453 1.77734 10.6875H0.875C0.382812 10.6875 0 10.3047 0 9.8125V6.75C0 6.01172 0.4375 5.38281 1.09375 5.13672L2.24219 2.29297C2.625 1.28125 3.60938 0.625 4.67578 0.625H9.65234C10.4453 0.625 11.1836 1.00781 11.7031 1.63672L14.4375 5.02734C16.1602 5.24609 17.5 6.72266 17.5 8.5ZM4.67578 2.375C4.32031 2.375 3.99219 2.59375 3.85547 2.94922L3.03516 5H6.125V2.375H4.67578ZM7.4375 5H12.168L10.3359 2.70312C10.1719 2.51172 9.89844 2.375 9.65234 2.375H7.4375V5ZM14.3555 10.6875C14.4102 10.5508 14.4375 10.4141 14.4375 10.25C14.4375 9.53906 13.8359 8.9375 13.125 8.9375C12.3867 8.9375 11.8125 9.53906 11.8125 10.25C11.8125 10.4141 11.8125 10.5508 11.8672 10.6875C12.0586 11.207 12.5508 11.5625 13.125 11.5625C13.6719 11.5625 14.1641 11.207 14.3555 10.6875ZM5.60547 10.6875C5.66016 10.5508 5.6875 10.4141 5.6875 10.25C5.6875 9.53906 5.08594 8.9375 4.375 8.9375C3.63672 8.9375 3.0625 9.53906 3.0625 10.25C3.0625 10.4141 3.0625 10.5508 3.11719 10.6875C3.30859 11.207 3.80078 11.5625 4.375 11.5625C4.92188 11.5625 5.41406 11.207 5.60547 10.6875Z" fill="#6A7187"/>
</svg>
