<svg width="12" height="19" viewBox="0 0 12 19" fill="none" xmlns="http://www.w3.org/2000/svg">
<path d="M6 0.25C6.59766 0.25 7.125 0.777344 7.125 1.375V2.64062C7.16016 2.64062 7.23047 2.67578 7.26562 2.67578C7.65234 2.71094 8.74219 2.92188 9.19922 3.02734C9.79688 3.16797 10.1836 3.80078 10.043 4.39844C9.86719 4.99609 9.26953 5.34766 8.67188 5.20703C8.32031 5.10156 7.33594 4.96094 6.94922 4.89062C5.82422 4.71484 4.83984 4.82031 4.17188 5.06641C3.53906 5.3125 3.25781 5.66406 3.1875 6.05078C3.11719 6.4375 3.1875 6.64844 3.25781 6.78906C3.32812 6.92969 3.43359 7.07031 3.71484 7.24609C4.27734 7.63281 5.15625 7.87891 6.28125 8.19531H6.38672C7.37109 8.47656 8.60156 8.82812 9.51562 9.42578C10.0078 9.74219 10.4648 10.1992 10.7461 10.7969C11.0625 11.4297 11.0977 12.1328 10.9922 12.8711C10.7461 14.207 9.79688 15.1211 8.67188 15.5781C8.17969 15.7891 7.65234 15.8945 7.125 15.9648V17.125C7.125 17.7578 6.59766 18.25 6 18.25C5.36719 18.25 4.875 17.7578 4.875 17.125V15.9297C4.83984 15.9297 4.83984 15.8945 4.80469 15.8945C3.96094 15.7891 2.55469 15.4023 1.60547 14.9805C1.00781 14.7344 0.761719 14.0664 1.00781 13.5039C1.25391 12.9414 1.92188 12.6602 2.48438 12.9414C3.22266 13.2578 4.45312 13.5742 5.15625 13.6797C6.28125 13.8555 7.19531 13.75 7.82812 13.5039C8.42578 13.2578 8.67188 12.9062 8.77734 12.4844C8.84766 12.0977 8.77734 11.8867 8.70703 11.7461C8.63672 11.6055 8.53125 11.4648 8.25 11.2891C7.6875 10.9023 6.80859 10.6562 5.68359 10.3398H5.57812C4.59375 10.0586 3.36328 9.70703 2.44922 9.10938C1.95703 8.79297 1.5 8.33594 1.21875 7.73828C0.902344 7.10547 0.867188 6.40234 0.972656 5.62891C1.25391 4.29297 2.23828 3.41406 3.36328 2.95703C3.82031 2.78125 4.34766 2.67578 4.875 2.60547V1.375C4.875 0.777344 5.36719 0.25 6 0.25Z" fill="#9A9A9A"/>
</svg>
