<svg xmlns="http://www.w3.org/2000/svg" width="21" height="18.2" viewBox="0 0 21 18.2">
  <g id="noun-folder-4711432" transform="translate(-87.5 -52.5)">
    <path id="Path_72292" data-name="Path 72292" d="M87.5,56V67.2A3.5,3.5,0,0,0,91,70.7h14a3.5,3.5,0,0,0,3.5-3.5V58.8a3.5,3.5,0,0,0-3.5-3.5h-4.97a3.5,3.5,0,0,0-3.43-2.8H91A3.5,3.5,0,0,0,87.5,56Zm19.6,2.8v8.4a2.1,2.1,0,0,1-2.1,2.1H91a2.1,2.1,0,0,1-2.1-2.1V56.7H105a2.1,2.1,0,0,1,2.1,2.1Zm-8.52-3.5H89.02A2.1,2.1,0,0,1,91,53.9h5.6a2.1,2.1,0,0,1,1.98,1.4Z" transform="translate(0 0)" fill="#007aff" fill-rule="evenodd"/>
    <path id="Path_72293" data-name="Path 72293" d="M441,402.5h-2.8a.7.7,0,1,0,0,1.4H441a.7.7,0,0,0,0-1.4Z" transform="translate(-336 -336)" fill="#007aff" fill-rule="evenodd"/>
  </g>
</svg>
