<svg width="16" height="16" viewBox="0 0 16 16" fill="none" xmlns="http://www.w3.org/2000/svg">
<path d="M8.16699 0.875C4.00684 0.875 0.666992 4.24414 0.666992 8.375C0.666992 12.5352 4.00684 15.875 8.16699 15.875C12.2979 15.875 15.667 12.5352 15.667 8.375C15.667 4.24414 12.2979 0.875 8.16699 0.875ZM8.16699 14.4688C4.79785 14.4688 2.07324 11.7441 2.07324 8.375C2.07324 5.03516 4.79785 2.28125 8.16699 2.28125C11.5068 2.28125 14.2607 5.03516 14.2607 8.375C14.2607 11.7441 11.5068 14.4688 8.16699 14.4688ZM9.33887 10.7188H8.87012V8.14062C8.87012 7.75977 8.54785 7.4375 8.16699 7.4375H7.22949C6.81934 7.4375 6.52637 7.75977 6.52637 8.14062C6.52637 8.55078 6.81934 8.84375 7.22949 8.84375H7.46387V10.7188H6.99512C6.58496 10.7188 6.29199 11.041 6.29199 11.4219C6.29199 11.832 6.58496 12.125 6.99512 12.125H9.33887C9.71973 12.125 10.042 11.832 10.042 11.4219C10.042 11.041 9.71973 10.7188 9.33887 10.7188ZM8.16699 6.5C8.66504 6.5 9.10449 6.08984 9.10449 5.5625C9.10449 5.06445 8.66504 4.625 8.16699 4.625C7.63965 4.625 7.22949 5.06445 7.22949 5.5625C7.22949 6.08984 7.63965 6.5 8.16699 6.5Z" fill="#061237"/>
</svg>
