    <svg width="18" height="14" viewBox="0 0 18 14" fill="none" xmlns="http://www.w3.org/2000/svg">
<path d="M0 2.75C0 1.51953 0.984375 0.5 2.25 0.5H15.75C16.9805 0.5 18 1.51953 18 2.75V11.75C18 13.0156 16.9805 14 15.75 14H2.25C0.984375 14 0 13.0156 0 11.75V2.75ZM1.6875 2.75V3.55859L7.73438 8.51562C8.47266 9.11328 9.49219 9.11328 10.2305 8.51562L16.3125 3.55859V2.75C16.3125 2.46875 16.0312 2.1875 15.75 2.1875H2.25C1.93359 2.1875 1.6875 2.46875 1.6875 2.75ZM1.6875 5.73828V11.75C1.6875 12.0664 1.93359 12.3125 2.25 12.3125H15.75C16.0312 12.3125 16.3125 12.0664 16.3125 11.75V5.73828L11.3203 9.81641C9.94922 10.9414 8.01562 10.9414 6.64453 9.81641L1.6875 5.73828Z" fill="#333333"/>
</svg>
