<svg width="21" height="19" viewBox="0 0 21 19" fill="none" xmlns="http://www.w3.org/2000/svg">
<path d="M11 0.75C5.45312 0.75 1 4.42188 1 8.875C1 10.75 1.74219 12.4688 3.03125 13.8359C2.48438 15.3594 1.27344 16.6875 1.23438 16.6875C0.960938 16.9609 0.921875 17.3516 1.03906 17.7031C1.19531 18.0547 1.54688 18.25 1.9375 18.25C4.32031 18.25 6.19531 17.2734 7.36719 16.4531C8.46094 16.8047 9.71094 17 11 17C16.5078 17 20.9609 13.3672 20.9609 8.875C20.9609 4.42188 16.5078 0.75 11 0.75ZM11 15.125C9.94531 15.125 8.89062 14.9688 7.91406 14.6562L7.01562 14.3828L6.27344 14.9297C5.72656 15.3203 4.94531 15.75 4.00781 16.0625C4.32031 15.5938 4.59375 15.0469 4.78906 14.5L5.21875 13.4062L4.39844 12.5469C3.69531 11.8047 2.875 10.5547 2.875 8.875C2.875 5.4375 6.50781 2.625 11 2.625C15.4531 2.625 19.125 5.4375 19.125 8.875C19.125 12.3516 15.4531 15.125 11 15.125Z" fill="black"/>
</svg>
