<svg width="12" height="16" viewBox="0 0 12 16" fill="none" xmlns="http://www.w3.org/2000/svg">
<path d="M9.875 2.75H8.41016C8.17578 1.69531 7.23828 0.875 6.125 0.875C4.98242 0.875 4.04492 1.69531 3.81055 2.75H2.375C1.32031 2.75 0.5 3.59961 0.5 4.625V14C0.5 15.0547 1.32031 15.875 2.375 15.875H9.875C10.9004 15.875 11.75 15.0547 11.75 14V4.625C11.75 3.59961 10.9004 2.75 9.875 2.75ZM6.125 2.28125C6.50586 2.28125 6.82812 2.60352 6.82812 2.98438C6.82812 3.39453 6.50586 3.6875 6.125 3.6875C5.71484 3.6875 5.42188 3.39453 5.42188 2.98438C5.42188 2.60352 5.71484 2.28125 6.125 2.28125ZM10.3438 14C10.3438 14.2637 10.1094 14.4688 9.875 14.4688H2.375C2.11133 14.4688 1.90625 14.2637 1.90625 14V4.625C1.90625 4.39062 2.11133 4.15625 2.375 4.15625H2.90234C2.84375 4.33203 2.84375 4.47852 2.84375 4.625V5.09375C2.84375 5.35742 3.04883 5.5625 3.3125 5.5625H8.9375C9.17188 5.5625 9.40625 5.35742 9.40625 5.09375V4.625C9.40625 4.47852 9.37695 4.33203 9.31836 4.15625H9.875C10.1094 4.15625 10.3438 4.39062 10.3438 4.625V14Z" fill="#83899B"/>
</svg>
