<svg width="20" height="22" viewBox="0 0 20 22" fill="none" xmlns="http://www.w3.org/2000/svg">
<path d="M13.0002 17V17.75C13.0002 18.5456 12.6842 19.3087 12.1216 19.8713C11.5589 20.4339 10.7959 20.75 10.0002 20.75C9.20458 20.75 8.44152 20.4339 7.87891 19.8713C7.3163 19.3087 7.00023 18.5456 7.00023 17.75V17M18.0477 15.4733C16.844 14 15.9941 13.25 15.9941 9.18828C15.9941 5.46875 14.0948 4.14359 12.5315 3.5C12.3238 3.41469 12.1284 3.21875 12.0651 3.00547C11.7909 2.07219 11.0221 1.25 10.0002 1.25C8.97836 1.25 8.20914 2.07266 7.93773 3.00641C7.87445 3.22203 7.67898 3.41469 7.47133 3.5C5.90617 4.14453 4.00867 5.465 4.00867 9.18828C4.00633 13.25 3.15648 14 1.95273 15.4733C1.45398 16.0836 1.89086 17 2.7632 17H17.242C18.1096 17 18.5437 16.0808 18.0477 15.4733Z" stroke="#061237" stroke-width="1.5" stroke-linecap="round" stroke-linejoin="round"/>
</svg>
