<svg width="20" height="20" viewBox="0 0 20 20" fill="none" xmlns="http://www.w3.org/2000/svg">
<path d="M10 20C15.5078 20 20 15.5469 20 10C20 4.49219 15.5078 0 10 0C4.45312 0 0 4.49219 0 10C0 15.5469 4.45312 20 10 20ZM9.0625 13.4375V10.9375H6.5625C6.01562 10.9375 5.625 10.5469 5.625 10C5.625 9.49219 6.01562 9.0625 6.5625 9.0625H9.0625V6.5625C9.0625 6.05469 9.45312 5.625 10 5.625C10.5078 5.625 10.9375 6.05469 10.9375 6.5625V9.0625H13.4375C13.9453 9.0625 14.375 9.49219 14.375 10C14.375 10.5469 13.9453 10.9375 13.4375 10.9375H10.9375V13.4375C10.9375 13.9844 10.5078 14.375 10 14.375C9.45312 14.375 9.0625 13.9844 9.0625 13.4375Z" fill="#1355FF"/>
</svg>
