<svg width="20" height="20" viewBox="0 0 20 20" fill="none" xmlns="http://www.w3.org/2000/svg">
<path d="M16.875 17.5C16.793 17.5001 16.7117 17.484 16.6358 17.4526C16.56 17.4211 16.4912 17.375 16.4333 17.3168L2.68325 3.5668C2.57099 3.44863 2.50933 3.29129 2.51141 3.12831C2.5135 2.96534 2.57917 2.80962 2.69442 2.69437C2.80967 2.57912 2.96538 2.51345 3.12836 2.51137C3.29134 2.50928 3.44868 2.57094 3.56684 2.6832L17.3168 16.4332C17.4042 16.5206 17.4637 16.6319 17.4878 16.7531C17.5119 16.8743 17.4995 17 17.4522 17.1141C17.4049 17.2283 17.3249 17.3259 17.2221 17.3946C17.1194 17.4633 16.9986 17.4999 16.875 17.5ZM9.98677 15C8.36606 15 6.80317 14.5203 5.34145 13.5742C4.01059 12.7148 2.81255 11.484 1.87661 10.0195V10.0164C2.65552 8.90039 3.50864 7.95664 4.42505 7.1957C4.43334 7.18877 4.4401 7.1802 4.44491 7.17052C4.44971 7.16084 4.45246 7.15027 4.45297 7.13948C4.45349 7.12869 4.45176 7.11791 4.44789 7.10782C4.44403 7.09772 4.43811 7.08855 4.43052 7.08086L3.65239 6.30391C3.63856 6.28996 3.61999 6.28174 3.60038 6.28087C3.58076 6.28 3.56154 6.28655 3.54653 6.29922C2.57309 7.11953 1.66958 8.12578 0.848093 9.30391C0.706759 9.50676 0.628921 9.74705 0.62447 9.99425C0.620018 10.2414 0.689155 10.4844 0.823094 10.6922C1.85473 12.3066 3.18247 13.6664 4.66216 14.6238C6.32817 15.7031 8.12114 16.25 9.98677 16.25C10.9938 16.2469 11.9937 16.0809 12.9477 15.7586C12.9603 15.7543 12.9716 15.7469 12.9805 15.7371C12.9894 15.7272 12.9957 15.7153 12.9987 15.7023C13.0017 15.6894 13.0014 15.6759 12.9977 15.6631C12.9941 15.6503 12.9872 15.6387 12.9778 15.6293L12.1348 14.7863C12.1154 14.7674 12.0914 14.7538 12.0652 14.747C12.0389 14.7401 12.0114 14.7402 11.9852 14.7473C11.3324 14.9154 10.6609 15.0003 9.98677 15ZM19.1735 9.32031C18.1399 7.72188 16.7989 6.36406 15.2958 5.39336C13.6329 4.31836 11.7969 3.75 9.98677 3.75C8.99043 3.75177 8.00149 3.92119 7.06137 4.25117C7.04885 4.25553 7.03764 4.26301 7.0288 4.27289C7.01996 4.28278 7.01379 4.29476 7.01086 4.30769C7.00793 4.32063 7.00834 4.3341 7.01205 4.34683C7.01576 4.35956 7.02265 4.37114 7.03208 4.38047L7.87388 5.22227C7.89347 5.24153 7.9178 5.25528 7.94441 5.26214C7.97102 5.269 7.99897 5.26872 8.02544 5.26133C8.66488 5.08835 9.32434 5.00048 9.98677 5C11.5762 5 13.1344 5.48555 14.6176 6.44531C15.9735 7.32031 17.1856 8.55 18.1239 10C18.1246 10.0009 18.125 10.002 18.125 10.0031C18.125 10.0043 18.1246 10.0054 18.1239 10.0063C17.4428 11.0785 16.5976 12.0372 15.6192 12.8473C15.6108 12.8542 15.604 12.8627 15.5991 12.8724C15.5942 12.8821 15.5914 12.8927 15.5908 12.9036C15.5903 12.9144 15.592 12.9253 15.5959 12.9354C15.5998 12.9456 15.6057 12.9548 15.6133 12.9625L16.3907 13.7395C16.4044 13.7533 16.4229 13.7616 16.4424 13.7625C16.4619 13.7634 16.4811 13.757 16.4961 13.7445C17.5407 12.865 18.4448 11.8313 19.1774 10.6789C19.3069 10.4758 19.3753 10.2399 19.3746 9.99904C19.374 9.7582 19.3041 9.52263 19.1735 9.32031Z" fill="#83899B"/>
<path d="M10.0001 6.25C9.71917 6.24985 9.43915 6.2813 9.16529 6.34375C9.15146 6.34662 9.13867 6.35319 9.12827 6.36276C9.11788 6.37233 9.11027 6.38453 9.10626 6.39808C9.10225 6.41163 9.10199 6.42601 9.10551 6.43969C9.10903 6.45337 9.11619 6.46585 9.12623 6.47578L13.5243 10.8727C13.5342 10.8827 13.5467 10.8899 13.5604 10.8934C13.5741 10.8969 13.5884 10.8966 13.602 10.8926C13.6155 10.8886 13.6277 10.881 13.6373 10.8706C13.6469 10.8602 13.6534 10.8474 13.6563 10.8336C13.7815 10.2844 13.7814 9.71403 13.656 9.16488C13.5305 8.61573 13.283 8.1019 12.9317 7.66154C12.5804 7.22118 12.1345 6.86562 11.6269 6.62125C11.1194 6.37688 10.5634 6.24999 10.0001 6.25ZM6.47584 9.12734C6.4659 9.1173 6.45343 9.11014 6.43975 9.10662C6.42606 9.10311 6.41168 9.10337 6.39814 9.10738C6.38459 9.11138 6.37238 9.11899 6.36282 9.12938C6.35325 9.13978 6.34668 9.15257 6.34381 9.16641C6.20215 9.78529 6.21993 10.43 6.39551 11.0401C6.57108 11.6503 6.89868 12.2058 7.34762 12.6548C7.79655 13.1037 8.35212 13.4313 8.96226 13.6069C9.57239 13.7825 10.2171 13.8003 10.836 13.6586C10.8498 13.6557 10.8626 13.6492 10.873 13.6396C10.8834 13.63 10.891 13.6178 10.895 13.6043C10.899 13.5907 10.8993 13.5763 10.8958 13.5627C10.8923 13.549 10.8851 13.5365 10.8751 13.5266L6.47584 9.12734Z" fill="#83899B"/>
</svg>
