<svg width="14" height="14" viewBox="0 0 14 14" fill="none" xmlns="http://www.w3.org/2000/svg">
<path d="M1.0625 6.90625C1.21875 7.28125 1.59375 7.5 2 7.5H4.5V12.5C4.5 13.3438 5.15625 14 6 14H8C8.8125 14 9.5 13.3438 9.5 12.5V7.5H12C12.375 7.5 12.75 7.28125 12.9062 6.90625C13.0625 6.53125 12.9688 6.09375 12.6875 5.8125L7.6875 0.3125C7.5 0.125 7.25 0 7 0C6.71875 0 6.46875 0.125 6.28125 0.3125L1.28125 5.8125C1 6.09375 0.90625 6.53125 1.0625 6.90625ZM7 1.71875L10.7812 6H8V12.5H6V6H3.1875L7 1.71875Z" fill="#9A9A9A"/>
</svg>
