<svg width="17" height="16" viewBox="0 0 17 16" fill="none" xmlns="http://www.w3.org/2000/svg">
<path d="M8.5 7.5V0.53125C8.5 0.25 8.6875 0 9 0C12.8438 0 16 3.15625 16 7C16 7.28125 15.75 7.5 15.4688 7.5H8.5ZM14.4062 6C13.9688 3.78125 12.2188 2.03125 10 1.59375V6H14.4062ZM7 1.5625V9L11.875 13.9062C12.0938 14.125 12.0625 14.4688 11.8438 14.625C10.5938 15.5 9.09375 16 7.5 16C3.34375 16 0 12.6562 0 8.5C0 4.71875 2.8125 1.59375 6.4375 1.09375C6.75 1.03125 7 1.28125 7 1.5625ZM5.5 9.625V2.84375C3.15625 3.6875 1.5 5.90625 1.5 8.5C1.5 11.8125 4.15625 14.5 7.5 14.5C8.34375 14.5 9.125 14.3438 9.875 14.0312L5.5 9.625ZM16.4375 9C16.7188 9 16.9688 9.25 16.9062 9.53125C16.6875 11.2812 15.8438 12.8438 14.5938 14C14.4062 14.1562 14.125 14.1562 13.9375 13.9688L9 9H16.4375Z" fill="#1355FF"/>
</svg>
