<svg width="12" height="16" viewBox="0 0 12 16" fill="none" xmlns="http://www.w3.org/2000/svg">
<path d="M11.4062 2.9375L9.0625 0.59375C8.6875 0.21875 8.1875 0 7.65625 0H2C0.875 0 0 0.90625 0 2V14C0 15.125 0.875 16 2 16H10C11.0938 16 12 15.125 12 14V4.34375C12 3.8125 11.7812 3.3125 11.4062 2.9375ZM10.5 14C10.5 14.2812 10.25 14.5 10 14.5H2C1.71875 14.5 1.5 14.2812 1.5 14V2.03125C1.5 1.75 1.71875 1.53125 2 1.53125H7V4C7 4.5625 7.4375 5 8 5H10.4688V14H10.5ZM6 8C5.5625 8 5.25 8.34375 5.25 8.75V12.75C5.25 13.1875 5.5625 13.5 6 13.5C6.40625 13.5 6.75 13.1875 6.75 12.75V8.75C6.75 8.34375 6.40625 8 6 8ZM8 12.75C8 13.1875 8.3125 13.5 8.75 13.5C9.15625 13.5 9.5 13.1875 9.5 12.75V9.75C9.5 9.34375 9.15625 9 8.75 9C8.3125 9 8 9.34375 8 9.75V12.75ZM3.25 10C2.8125 10 2.5 10.3438 2.5 10.75V12.75C2.5 13.1875 2.8125 13.5 3.25 13.5C3.65625 13.5 4 13.1875 4 12.75V10.75C4 10.3438 3.65625 10 3.25 10Z" fill="black"/>
</svg>
