<svg width="18" height="15" viewBox="0 0 18 15" fill="none" xmlns="http://www.w3.org/2000/svg">
<path d="M11.4688 6.84375C11.1875 7.0625 10.7812 7.0625 10.5 6.84375L6.9375 3.71875L2.15625 6.875C1.8125 7.125 1.34375 7.03125 1.125 6.6875C0.875 6.34375 0.96875 5.875 1.3125 5.625L6.5625 2.15625C6.84375 1.96875 7.21875 1.96875 7.46875 2.1875L11 5.28125L15.75 1.1875C16.0625 0.9375 16.5312 0.96875 16.8125 1.28125C17.0625 1.59375 17.0312 2.0625 16.7188 2.34375L11.4688 6.84375ZM8.5 8.5V13.5C8.5 14.3438 7.8125 15 7 15C6.15625 15 5.5 14.3438 5.5 13.5V8.5C5.5 7.6875 6.15625 7 7 7C7.8125 7 8.5 7.6875 8.5 8.5ZM7.25 13.5V8.5C7.25 8.375 7.125 8.25 7 8.25C6.84375 8.25 6.75 8.375 6.75 8.5V13.5C6.75 13.6562 6.84375 13.75 7 13.75C7.125 13.75 7.25 13.6562 7.25 13.5ZM4.5 11.5V13.5C4.5 14.3438 3.8125 15 3 15C2.15625 15 1.5 14.3438 1.5 13.5V11.5C1.5 10.6875 2.15625 10 3 10C3.8125 10 4.5 10.6875 4.5 11.5ZM3.25 13.5V11.5C3.25 11.375 3.125 11.25 3 11.25C2.84375 11.25 2.75 11.375 2.75 11.5V13.5C2.75 13.6562 2.84375 13.75 3 13.75C3.125 13.75 3.25 13.6562 3.25 13.5ZM9.5 10.5C9.5 9.6875 10.1562 9 11 9C11.8125 9 12.5 9.6875 12.5 10.5V13.5C12.5 14.3438 11.8125 15 11 15C10.1562 15 9.5 14.3438 9.5 13.5V10.5ZM11 10.25C10.8438 10.25 10.75 10.375 10.75 10.5V13.5C10.75 13.6562 10.8438 13.75 11 13.75C11.125 13.75 11.25 13.6562 11.25 13.5V10.5C11.25 10.375 11.125 10.25 11 10.25ZM16.5 8.5V13.5C16.5 14.3438 15.8125 15 15 15C14.1562 15 13.5 14.3438 13.5 13.5V8.5C13.5 7.6875 14.1562 7 15 7C15.8125 7 16.5 7.6875 16.5 8.5ZM15.25 13.5V8.5C15.25 8.375 15.125 8.25 15 8.25C14.8438 8.25 14.75 8.375 14.75 8.5V13.5C14.75 13.6562 14.8438 13.75 15 13.75C15.125 13.75 15.25 13.6562 15.25 13.5Z" fill="#9A9A9A"/>
</svg>
