<svg width="18" height="16" viewBox="0 0 18 16" fill="none" xmlns="http://www.w3.org/2000/svg">
<path d="M16.6875 3.25C17.0312 3.25 17.25 3.59375 17.0938 3.875C16.9688 4.0625 16.8438 4.21875 16.6875 4.34375C16.5625 4.46875 16.4062 4.5625 16.25 4.65625C16.1875 4.6875 16.125 4.71875 16.0625 4.75C15.75 4.9375 15.375 5 15 5C14.0625 5 13.2812 4.53125 12.8438 3.8125C12.75 3.625 12.5625 3.5 12.375 3.5H5.59375C5.40625 3.5 5.21875 3.625 5.125 3.8125C4.6875 4.53125 3.90625 5 3 5C2.59375 5 2.21875 4.9375 1.90625 4.75C1.84375 4.71875 1.78125 4.6875 1.71875 4.65625C1.5625 4.5625 1.40625 4.46875 1.28125 4.34375C1.125 4.21875 1 4.0625 0.875 3.875C0.71875 3.59375 0.9375 3.25 1.28125 3.25H2.25C2.28125 3.25 2.28125 3.25 2.3125 3.25C2.6875 3.21875 3 2.90625 3 2.5C3 2.125 2.6875 1.8125 2.3125 1.78125C2.28125 1.78125 2.28125 1.78125 2.25 1.78125V1.75H1.28125C0.9375 1.75 0.71875 1.4375 0.875 1.15625C1 0.96875 1.125 0.8125 1.28125 0.6875C1.40625 0.5625 1.5625 0.46875 1.71875 0.375C1.78125 0.34375 1.84375 0.28125 1.90625 0.25C2.21875 0.09375 2.59375 0 3 0C3.90625 0 4.6875 0.5 5.125 1.21875C5.21875 1.40625 5.40625 1.5 5.59375 1.5H12.375C12.5625 1.5 12.75 1.40625 12.8438 1.21875C13.2812 0.5 14.0625 0 15 0C15.375 0 15.75 0.09375 16.0625 0.25C16.125 0.28125 16.1875 0.34375 16.25 0.375C16.4062 0.46875 16.5625 0.5625 16.6875 0.6875C16.8438 0.8125 16.9688 0.96875 17.0938 1.15625C17.25 1.4375 17.0312 1.75 16.6875 1.75H15.75L15.7188 1.78125C15.6875 1.78125 15.6875 1.78125 15.6562 1.78125C15.2812 1.8125 15 2.125 15 2.5C15 2.90625 15.2812 3.21875 15.6562 3.25C15.6875 3.25 15.6875 3.25 15.7188 3.25H15.75H16.6875ZM5.25 11.25C5.25 10.8438 5.5625 10.5 6 10.5C6.40625 10.5 6.75 10.8438 6.75 11.25C6.75 11.6875 6.40625 12 6 12C5.5625 12 5.25 11.6875 5.25 11.25ZM12.75 11.25C12.75 11.6875 12.4062 12 12 12C11.5625 12 11.25 11.6875 11.25 11.25C11.25 10.8438 11.5625 10.5 12 10.5C12.4062 10.5 12.75 10.8438 12.75 11.25ZM4.6875 6.5C5 5.625 5.84375 5 6.78125 5H11.1875C12.125 5 12.9688 5.625 13.2812 6.5L14.1875 9C14.1875 9.03125 14.1875 9.03125 14.2188 9.0625C14.9688 9.59375 15.5 10.5 15.5 11.5V15.25C15.5 15.6875 15.1562 16 14.75 16C14.3125 16 14 15.6875 14 15.25V14H4V15.25C4 15.6875 3.65625 16 3.25 16C2.8125 16 2.5 15.6875 2.5 15.25V11.5C2.5 10.5 3 9.59375 3.75 9.0625C3.78125 9.03125 3.78125 9.03125 3.78125 9L4.6875 6.5ZM6.78125 6.5C6.46875 6.5 6.1875 6.71875 6.09375 7L5.5625 8.5H12.4062L11.875 7C11.7812 6.71875 11.5 6.5 11.1875 6.5H6.78125ZM12.5 10H5.5C4.65625 10 4 10.6875 4 11.5V12.5H14V11.5C14 10.6875 13.3125 10 12.5 10Z" fill="black"/>
</svg>
