<svg width="18" height="16" viewBox="0 0 18 16" fill="none" xmlns="http://www.w3.org/2000/svg">
<path d="M16.3125 3.25H15.9375H15.9062C15.875 3.25 15.875 3.25 15.8438 3.25C15.4688 3.21875 15.1875 2.90625 15.1875 2.5C15.1875 2.125 15.4688 1.8125 15.8438 1.78125C15.875 1.75 15.875 1.75 15.9062 1.75H16.3125H16.875C17.2188 1.75 17.4375 1.4375 17.25 1.15625C17.1562 0.96875 17.0312 0.8125 16.875 0.6875C16.75 0.5625 16.5938 0.46875 16.4375 0.375C16.375 0.3125 16.3125 0.28125 16.25 0.25C15.9375 0.09375 15.5625 0 15.1875 0C14.25 0 13.4688 0.5 13.0312 1.21875C12.9375 1.40625 12.75 1.5 12.5625 1.5H5.78125C5.59375 1.5 5.40625 1.40625 5.3125 1.21875C4.875 0.5 4.09375 0 3.1875 0C2.78125 0 2.40625 0.09375 2.09375 0.25C2.03125 0.28125 1.96875 0.3125 1.90625 0.375C1.75 0.4375 1.59375 0.5625 1.46875 0.6875C1.3125 0.8125 1.1875 0.96875 1.09375 1.15625C0.90625 1.4375 1.125 1.75 1.46875 1.75H2.03125H2.4375C2.46875 1.75 2.46875 1.78125 2.5 1.78125C2.875 1.8125 3.1875 2.125 3.1875 2.5C3.1875 2.90625 2.875 3.21875 2.5 3.25C2.5 3.25 2.46875 3.25 2.4375 3.25H2.03125H1.46875C1.125 3.25 0.90625 3.59375 1.0625 3.875C1.1875 4.0625 1.3125 4.21875 1.46875 4.34375C1.59375 4.46875 1.75 4.5625 1.90625 4.65625C1.96875 4.6875 2.03125 4.71875 2.09375 4.75C2.40625 4.90625 2.78125 5 3.15625 5C4.09375 5 4.875 4.53125 5.3125 3.8125C5.40625 3.625 5.59375 3.5 5.78125 3.5H12.5625C12.75 3.5 12.9375 3.625 13.0312 3.8125C13.4688 4.53125 14.2812 5 15.1875 5C15.5625 5 15.9375 4.90625 16.25 4.75C16.3125 4.71875 16.375 4.6875 16.4375 4.65625C16.5938 4.5625 16.75 4.46875 16.875 4.34375C17.0312 4.21875 17.1562 4.0625 17.2812 3.875C17.4375 3.59375 17.2188 3.25 16.875 3.25H16.3125ZM6.96875 6.5H11.375C11.6875 6.5 11.9688 6.71875 12.0625 7L12.5938 8.5H5.75L6.28125 7C6.375 6.71875 6.65625 6.5 6.96875 6.5ZM3.96875 9C3.96875 9.03125 3.96875 9.03125 3.9375 9.0625C3.1875 9.59375 2.6875 10.5 2.6875 11.5V12.5V13V14V15.25C2.6875 15.6875 3 16 3.4375 16C3.84375 16 4.1875 15.6875 4.1875 15.25V14H14.1875V15.25C14.1875 15.6875 14.5 16 14.9375 16C15.3438 16 15.6875 15.6875 15.6875 15.25V14V13V12.5V11.5C15.6875 10.5 15.1562 9.59375 14.4062 9.0625C14.4062 9.03125 14.375 9.03125 14.375 9L13.5 6.5C13.1562 5.625 12.3125 5 11.375 5H6.96875C6.03125 5 5.1875 5.625 4.875 6.5L3.96875 9ZM12.6875 10C13.5 10 14.1875 10.6875 14.1875 11.5V12.5H4.1875V11.5C4.1875 10.6875 4.84375 10 5.6875 10H12.6875ZM6.1875 12C6.59375 12 6.9375 11.6875 6.9375 11.25C6.9375 10.8438 6.59375 10.5 6.1875 10.5C5.75 10.5 5.4375 10.8438 5.4375 11.25C5.4375 11.6875 5.75 12 6.1875 12ZM12.9375 11.25C12.9375 10.8438 12.5938 10.5 12.1875 10.5C11.75 10.5 11.4375 10.8438 11.4375 11.25C11.4375 11.6875 11.75 12 12.1875 12C12.5938 12 12.9375 11.6875 12.9375 11.25Z" fill="#1355FF"/>
</svg>
