<svg width="18" height="19" viewBox="0 0 18 19" fill="none" xmlns="http://www.w3.org/2000/svg">
<path d="M15.75 0.25H2.25C0.984375 0.25 0 1.26953 0 2.5V12.5898C0 13.8203 0.984375 14.8047 2.25 14.8047H5.625V17.7578C5.625 18.1094 6.01172 18.2852 6.29297 18.0742L10.6875 14.875H15.75C16.9805 14.875 18 13.8555 18 12.625V2.5C18 1.26953 16.9805 0.25 15.75 0.25ZM16.3125 12.625C16.3125 12.9414 16.0312 13.1875 15.75 13.1875H10.125L7.3125 15.2969V13.1875H2.25C1.93359 13.1875 1.6875 12.9414 1.6875 12.625V2.5C1.6875 2.21875 1.93359 1.9375 2.25 1.9375H15.75C16.0312 1.9375 16.3125 2.21875 16.3125 2.5V12.625ZM4.35938 7.03516C3.97266 6.92969 3.62109 6.85938 3.65625 6.64844C3.65625 6.47266 4.00781 6.40234 4.39453 6.47266C4.53516 6.50781 4.71094 6.54297 4.85156 6.61328C5.16797 6.71875 5.48438 6.54297 5.58984 6.26172C5.69531 5.94531 5.51953 5.62891 5.23828 5.52344C5.02734 5.45312 4.78125 5.38281 4.57031 5.34766C3.48047 5.20703 2.67188 5.62891 2.53125 6.47266C2.32031 7.63281 3.48047 7.94922 3.90234 8.08984C4.35938 8.23047 4.78125 8.30078 4.74609 8.51172C4.74609 8.65234 4.39453 8.75781 4.00781 8.6875C3.76172 8.65234 3.51562 8.54688 3.26953 8.44141C2.98828 8.33594 2.70703 8.51172 2.60156 8.82812C2.49609 9.10938 2.70703 9.46094 2.98828 9.56641C3.23438 9.63672 3.55078 9.74219 3.83203 9.77734C3.97266 9.8125 4.11328 9.8125 4.25391 9.8125C5.09766 9.8125 5.73047 9.39062 5.83594 8.6875C6.08203 7.52734 4.95703 7.21094 4.35938 7.03516ZM13.9219 7.03516C13.5352 6.92969 13.1836 6.85938 13.2188 6.64844C13.2188 6.47266 13.5703 6.40234 13.957 6.47266C14.0977 6.50781 14.2734 6.54297 14.4141 6.61328C14.7305 6.71875 15.0469 6.54297 15.1523 6.26172C15.2578 5.94531 15.082 5.62891 14.8008 5.52344C14.5898 5.45312 14.3438 5.38281 14.1328 5.34766C13.043 5.20703 12.2344 5.62891 12.0938 6.47266C11.8828 7.63281 13.043 7.94922 13.4648 8.08984C13.9219 8.23047 14.3438 8.30078 14.3086 8.51172C14.3086 8.65234 13.957 8.75781 13.5703 8.6875C13.3242 8.65234 13.0781 8.54688 12.832 8.44141C12.5508 8.33594 12.2695 8.51172 12.1641 8.82812C12.0586 9.10938 12.2695 9.46094 12.5508 9.56641C12.7969 9.63672 13.1133 9.74219 13.3945 9.77734C13.5352 9.8125 13.6758 9.8125 13.8164 9.8125C14.6602 9.8125 15.293 9.39062 15.3984 8.6875C15.6445 7.52734 14.5195 7.21094 13.9219 7.03516ZM10.8633 5.34766C10.6172 5.27734 10.3711 5.34766 10.2305 5.55859L9 7.21094L7.73438 5.55859C7.59375 5.34766 7.34766 5.27734 7.10156 5.34766C6.89062 5.41797 6.75 5.66406 6.75 5.875V9.25C6.75 9.56641 6.99609 9.8125 7.3125 9.8125C7.59375 9.8125 7.875 9.56641 7.875 9.25V7.5625L8.54297 8.47656C8.75391 8.75781 9.21094 8.75781 9.42188 8.47656L10.125 7.5625V9.25C10.125 9.56641 10.3711 9.8125 10.6875 9.8125C10.9688 9.8125 11.25 9.56641 11.25 9.25V5.875C11.25 5.66406 11.0742 5.41797 10.8633 5.34766Z" fill="#333333"/>
</svg>
