<svg width="20" height="16" viewBox="0 0 20 16" fill="none" xmlns="http://www.w3.org/2000/svg">
<path d="M9.96875 10C11.7812 10 13.2188 8.5625 13.2188 6.75C13.2188 4.96875 11.75 3.5 9.96875 3.5C8.1875 3.5 6.75 4.96875 6.75 6.75C6.71875 8.5625 8.1875 10 9.96875 10ZM9.96875 5C10.9375 5 11.7188 5.8125 11.7188 6.75C11.7188 7.71875 10.9375 8.5 9.96875 8.5C9.03125 8.5 8.21875 7.71875 8.21875 6.75C8.21875 5.8125 9.03125 5 9.96875 5ZM16 5C17.375 5 18.5 3.90625 18.5 2.5C18.5 1.125 17.375 0 16 0C14.5938 0 13.5 1.125 13.5 2.5C13.5 3.90625 14.5938 5 16 5ZM11.5312 11H8.4375C5.96875 11 4 12.875 4 15.1875C4 15.6562 4.375 16 4.875 16H15.0938C15.5938 16 16 15.6562 16 15.1875C16 12.875 14 11 11.5312 11ZM5.5625 14.5C5.875 13.375 7.03125 12.5 8.40625 12.5H11.5312C12.9062 12.5 14.0625 13.375 14.4062 14.5H5.5625ZM17.2188 6H15.3125C14.9062 6 14.5312 6.125 14.1875 6.28125C14.1875 6.4375 14.2188 6.59375 14.2188 6.75C14.2188 7.8125 13.8438 8.78125 13.1875 9.5H19.4375C19.75 9.5 20 9.25 20 8.9375C20 7.3125 18.75 6 17.2188 6ZM5.71875 6.75C5.71875 6.59375 5.75 6.4375 5.78125 6.28125C5.4375 6.09375 5.0625 6 4.65625 6H2.75C1.21875 6 0 7.3125 0 8.9375C0 9.25 0.21875 9.5 0.53125 9.5H6.78125C6.125 8.78125 5.71875 7.8125 5.71875 6.75ZM4 5C5.375 5 6.5 3.90625 6.5 2.5C6.5 1.125 5.375 0 4 0C2.59375 0 1.5 1.125 1.5 2.5C1.5 3.90625 2.59375 5 4 5Z" fill="#9A9A9A"/>
</svg>
