<svg width="49" height="48" viewBox="0 0 49 48" fill="none" xmlns="http://www.w3.org/2000/svg">
<path d="M24.5 0C27.875 0 30.875 1.96875 32.375 4.875C35.4688 3.84375 39.0312 4.59375 41.4688 7.03125C43.9062 9.46875 44.6562 13.0312 43.625 16.125C46.5312 17.625 48.5 20.625 48.5 24C48.5 27.4688 46.5312 30.4688 43.625 31.9688C44.6562 35.0625 43.9062 38.5312 41.4688 40.9688C39.0312 43.4062 35.4688 44.1562 32.375 43.2188C30.875 46.125 27.875 48 24.5 48C21.0312 48 18.0312 46.125 16.5312 43.2188C13.4375 44.1562 9.96875 43.4062 7.53125 40.9688C5.09375 38.5312 4.34375 35.0625 5.28125 31.9688C2.375 30.4688 0.5 27.4688 0.5 24C0.5 20.625 2.375 17.625 5.28125 16.125C4.34375 13.0312 5.09375 9.46875 7.53125 7.03125C9.96875 4.59375 13.4375 3.84375 16.5312 4.875C18.0312 1.96875 21.0312 0 24.5 0ZM35.0938 19.5938C35.9375 18.75 35.9375 17.3438 35.0938 16.5C34.1562 15.5625 32.75 15.5625 31.9062 16.5L21.5 26.9062L17.0938 22.5C16.1562 21.5625 14.75 21.5625 13.9062 22.5C12.9688 23.3438 12.9688 24.75 13.9062 25.5938L19.9062 31.5938C20.75 32.5312 22.1562 32.5312 23.0938 31.5938L35.0938 19.5938Z" fill="#12A58C"/>
</svg>
