<svg width="16" height="18" viewBox="0 0 16 18" fill="none" xmlns="http://www.w3.org/2000/svg">
<path d="M14.5 9C14.5 11.3438 13.25 13.4688 11.25 14.6562C9.21875 15.8125 6.75 15.8125 4.75 14.6562C2.71875 13.4688 1.5 11.3438 1.5 9C1.5 6.6875 2.71875 4.5625 4.75 3.375C6.75 2.21875 9.21875 2.21875 11.25 3.375C13.25 4.5625 14.5 6.6875 14.5 9ZM0 9C0 11.875 1.5 14.5 4 15.9375C6.46875 17.375 9.5 17.375 12 15.9375C14.4688 14.5 16 11.875 16 9C16 6.15625 14.4688 3.53125 12 2.09375C9.5 0.65625 6.46875 0.65625 4 2.09375C1.5 3.53125 0 6.15625 0 9ZM7.25 4.75V9C7.25 9.25 7.375 9.5 7.5625 9.625L10.5625 11.625C10.9062 11.875 11.375 11.7812 11.625 11.4375C11.8438 11.0938 11.75 10.625 11.4062 10.375L8.75 8.625V4.75C8.75 4.34375 8.40625 4 8 4C7.5625 4 7.25 4.34375 7.25 4.75Z" fill="#1355FF"/>
</svg>
