<svg width="19" height="21" viewBox="0 0 19 21" fill="none" xmlns="http://www.w3.org/2000/svg">
<path d="M17.3125 13C17.8203 13 18.25 13.4297 18.25 13.9375V16.75C18.25 18.8594 16.5703 20.5 14.5 20.5H4.5C2.39062 20.5 0.75 18.8594 0.75 16.75V13.9375C0.75 13.4297 1.14062 13 1.6875 13C2.19531 13 2.625 13.4297 2.625 13.9375V16.75C2.625 17.8047 3.44531 18.625 4.5 18.625H14.5C15.5156 18.625 16.375 17.8047 16.375 16.75V13.9375C16.375 13.4297 16.7656 13 17.3125 13ZM8.83594 0.773438L3.52344 5.73438C3.13281 6.125 3.13281 6.71094 3.48438 7.10156C3.83594 7.49219 4.42188 7.49219 4.8125 7.14062L8.5625 3.625V13.3125C8.5625 13.8594 8.95312 14.25 9.5 14.25C10.0078 14.25 10.4375 13.8594 10.4375 13.3516V3.625L14.1484 7.14062C14.5391 7.49219 15.125 7.49219 15.4766 7.10156C15.6328 6.90625 15.75 6.67188 15.75 6.4375C15.75 6.20312 15.6328 5.96875 15.4375 5.77344L10.125 0.8125C9.77344 0.421875 9.1875 0.421875 8.83594 0.773438Z" fill="#B6B6B6"/>
</svg>
