<svg width="16" height="14" viewBox="0 0 16 14" fill="none" xmlns="http://www.w3.org/2000/svg">
<path d="M3.96875 2.34375L3.21875 4.5H12.75L12 2.34375C11.8125 1.84375 11.3438 1.5 10.8125 1.5H5.15625C4.625 1.5 4.15625 1.84375 3.96875 2.34375ZM1.5 4.90625L2.5625 1.84375C2.9375 0.75 4 0 5.15625 0H10.8125C12 0 13.0312 0.75 13.4062 1.84375L14.5 4.90625C15.375 5.4375 16 6.40625 16 7.5V10V11.5V13.25C16 13.6875 15.6562 14 15.25 14C14.8125 14 14.5 13.6875 14.5 13.25V11.5H1.5V13.25C1.5 13.6875 1.15625 14 0.75 14C0.3125 14 0 13.6875 0 13.25V11.5V10V7.5C0 6.40625 0.59375 5.4375 1.5 4.90625ZM13 6H3C2.15625 6 1.5 6.6875 1.5 7.5V10H14.5V7.5C14.5 6.6875 13.8125 6 13 6ZM3.5 7C4.03125 7 4.5 7.46875 4.5 8C4.5 8.5625 4.03125 9 3.5 9C2.9375 9 2.5 8.5625 2.5 8C2.5 7.46875 2.9375 7 3.5 7ZM11.5 8C11.5 7.46875 11.9375 7 12.5 7C13.0312 7 13.5 7.46875 13.5 8C13.5 8.5625 13.0312 9 12.5 9C11.9375 9 11.5 8.5625 11.5 8Z" fill="#1355FF"/>
</svg>
