<svg width="16" height="14" viewBox="0 0 16 14" fill="none" xmlns="http://www.w3.org/2000/svg">
<path d="M1.21875 5.15625L2.3125 2.03125C2.75 0.8125 3.875 0 5.15625 0H10.8125C12.0938 0 13.2188 0.8125 13.6562 2.03125L14.75 5.15625C15.4688 5.46875 16 6.1875 16 7V13C16 13.5625 15.5312 14 15 14H14C13.4375 14 13 13.5625 13 13V11.5H3V13C3 13.5625 2.53125 14 2 14H1C0.4375 14 0 13.5625 0 13V7C0 6.1875 0.5 5.46875 1.21875 5.15625ZM3.40625 5H12.5625L11.75 2.6875C11.625 2.28125 11.25 2 10.8125 2H5.15625C4.71875 2 4.34375 2.28125 4.21875 2.6875L3.40625 5ZM3 7C2.4375 7 2 7.46875 2 8C2 8.5625 2.4375 9 3 9C3.53125 9 4 8.5625 4 8C4 7.46875 3.53125 7 3 7ZM13 9C13.5312 9 14 8.5625 14 8C14 7.46875 13.5312 7 13 7C12.4375 7 12 7.46875 12 8C12 8.5625 12.4375 9 13 9Z" fill="white"/>
</svg>
