<svg width="19" height="18" viewBox="0 0 19 18" fill="none" xmlns="http://www.w3.org/2000/svg">
<path d="M16 3.625H13.75V2.5C13.75 1.26953 12.7305 0.25 11.5 0.25H7C5.73438 0.25 4.75 1.26953 4.75 2.5V3.625H2.5C1.23438 3.625 0.25 4.64453 0.25 5.875V14.875C0.25 16.1406 1.23438 17.125 2.5 17.125H16C17.2305 17.125 18.25 16.1406 18.25 14.875V5.875C18.25 4.64453 17.2305 3.625 16 3.625ZM7 1.9375H11.5C11.7812 1.9375 12.0625 2.21875 12.0625 2.5V3.625H6.4375V2.5C6.4375 2.21875 6.68359 1.9375 7 1.9375ZM2.5 5.3125H16C16.2812 5.3125 16.5625 5.59375 16.5625 5.875V9.25H1.9375V5.875C1.9375 5.59375 2.18359 5.3125 2.5 5.3125ZM16 15.4375H2.5C2.18359 15.4375 1.9375 15.1914 1.9375 14.875V10.9375H7V11.5C7 12.1328 7.49219 12.625 8.125 12.625H10.375C10.9727 12.625 11.5 12.1328 11.5 11.5V10.9375H16.5625V14.875C16.5625 15.1914 16.2812 15.4375 16 15.4375Z" fill="#9A9A9A"/>
</svg>
